<?xml version="1.0" standalone="no"?>
<!DOCTYPE svg PUBLIC "-//W3C//DTD SVG 20010904//EN"
 "http://www.w3.org/TR/2001/REC-SVG-20010904/DTD/svg10.dtd">
<svg version="1.0" xmlns="http://www.w3.org/2000/svg"
 width="700.000000pt" height="700.000000pt" viewBox="0 0 700.000000 700.000000"
 preserveAspectRatio="xMidYMid meet">
<metadata>
Created by potrace 1.11, written by Peter Selinger 2001-2013
</metadata>
<g transform="translate(0.000000,700.000000) scale(0.100000,-0.100000)"
fill="#000000" stroke="none">
<path d="M0 3500 l0 -3500 3500 0 3500 0 0 3500 0 3500 -3500 0 -3500 0 0
-3500z m3705 2755 l0 -330 -30 0 -30 0 -3 320 c-1 176 0 326 3 333 3 8 16 12
32 10 l28 -3 0 -330z m-744 -117 c74 -127 135 -237 137 -243 3 -11 -46 -51
-53 -43 -2 2 -66 112 -143 246 -139 239 -140 242 -119 257 12 8 27 15 33 15 6
0 72 -104 145 -232z m1684 152 c3 -5 -56 -117 -132 -249 l-138 -239 -28 15
-28 14 19 34 c11 18 75 128 142 244 108 188 124 210 140 201 10 -6 22 -14 25
-20z m-2219 -625 c93 -59 170 -109 172 -110 6 -5 -30 -55 -39 -55 -7 0 -345
212 -357 225 -9 9 30 57 42 52 7 -3 88 -53 182 -112z m2705 84 c13 -25 15 -23
-176 -193 -122 -109 -130 -114 -148 -99 -10 9 -16 22 -15 28 4 15 305 285 318
285 5 0 14 -10 21 -21z m-1245 -114 c246 -42 457 -150 641 -328 199 -192 322
-441 352 -710 7 -61 11 -420 11 -982 l0 -885 153 0 c106 0 157 -4 165 -12 8
-8 12 -56 12 -149 0 -112 -3 -141 -16 -153 -14 -14 -69 -16 -455 -16 l-439 0
0 -874 c0 -782 -2 -876 -16 -890 -12 -13 -40 -16 -143 -16 -85 0 -131 4 -139
12 -9 9 -12 220 -12 890 l0 878 -290 0 -290 0 0 -272 c0 -239 -2 -274 -17
-290 -14 -16 -33 -18 -153 -18 -92 0 -140 4 -148 12 -9 9 -12 87 -12 290 l0
278 -462 0 c-415 0 -463 2 -480 17 -16 14 -18 33 -18 145 0 71 5 138 10 149
10 18 23 19 165 19 l155 0 0 848 c0 466 5 903 10 971 22 280 127 519 318 723
174 185 416 316 668 362 107 19 320 20 430 1z"/>
<path d="M3505 5560 c-166 -26 -377 -112 -500 -205 -208 -156 -356 -371 -423
-614 l-27 -96 -3 -952 -3 -953 271 0 271 0 -1 523 c0 287 -1 533 0 546 0 23 2
24 55 17 128 -15 237 -87 263 -172 9 -30 12 -162 12 -478 l0 -436 280 0 280 0
0 263 0 263 -57 56 c-32 30 -231 212 -443 403 -212 192 -389 354 -393 362 -4
7 -3 22 3 33 11 20 20 20 605 20 577 0 595 -1 605 -19 6 -13 10 -250 10 -700
l0 -681 245 0 245 0 2 783 c2 953 1 1041 -18 1143 -62 353 -312 663 -653 810
-140 61 -257 86 -421 89 -80 2 -172 0 -205 -5z m56 -130 c23 -13 26 -62 5 -79
-8 -7 -45 -17 -83 -22 -89 -12 -154 -33 -233 -76 -221 -120 -392 -343 -453
-593 -26 -106 -48 -132 -92 -112 -31 14 -32 41 -6 145 88 343 369 642 677 721
102 26 157 30 185 16z m-90 -256 c19 -23 2 -42 -64 -69 -158 -64 -279 -172
-349 -312 -33 -65 -50 -88 -64 -88 -58 0 10 157 117 270 84 88 148 134 254
180 93 40 89 40 106 19z"/>
<path d="M3260 4036 c14 -13 56 -51 94 -85 l68 -61 309 0 309 0 0 -40 0 -40
-262 -2 -262 -3 265 -240 c145 -132 267 -244 271 -250 4 -5 8 -137 8 -292 l0
-283 80 0 80 0 0 660 0 660 -492 0 -493 0 25 -24z"/>
<path d="M3170 3241 l0 -501 80 0 80 0 0 449 c0 440 0 449 -21 475 -20 26 -71
56 -116 70 l-23 7 0 -500z"/>
<path d="M2220 2570 l0 -80 1460 0 1460 0 0 80 0 80 -1460 0 -1460 0 0 -80z"/>
<path d="M3170 2155 l0 -245 80 0 80 0 0 245 0 245 -80 0 -80 0 0 -245z"/>
<path d="M4080 1550 l0 -850 70 0 70 0 0 850 0 850 -70 0 -70 0 0 -850z"/>
</g>
</svg>
