<svg xmlns="http://www.w3.org/2000/svg" viewBox="0 0 338 338"><defs><style>.cls-1,.cls-2{fill:#fff;}.cls-1,.cls-7,.cls-8{stroke:#000;}.cls-1,.cls-3,.cls-5,.cls-7,.cls-8{stroke-miterlimit:10;}.cls-3,.cls-4,.cls-5,.cls-6,.cls-7{fill:none;}.cls-3,.cls-4,.cls-5,.cls-6{stroke:#fff;stroke-width:4px;}.cls-4,.cls-6{stroke-linejoin:round;}.cls-5,.cls-6{stroke-linecap:round;}.cls-7,.cls-8{stroke-width:2px;}</style></defs><title>Слой 2</title><g id="Слой_2" data-name="Слой 2"><g id="Слой_2-2" data-name="Слой 2"><rect width="338" height="338"/><rect class="cls-1" x="139.45" y="28.56" width="4.46" height="28.52" transform="translate(-2.43 76.58) rotate(-30)"/><rect class="cls-1" x="175.5" y="19.5" width="4" height="33"/><rect class="cls-1" x="113.55" y="54.7" width="4.45" height="21.96" transform="translate(-1.79 128.09) rotate(-57.52)"/><rect class="cls-1" x="214.7" y="31.29" width="4" height="28.19" transform="translate(51.72 -102.27) rotate(30)"/><rect class="cls-1" x="237.78" y="56.25" width="4" height="22.01" transform="translate(130.4 -156.47) rotate(48.28)"/><path class="cls-2" d="M134.34,116.29c2.14-17.07,18.42-35.24,36.31-35.88,3.21-.12,3.22-5.12,0-5-20.91.75-38.82,21-41.31,40.88-.4,3.18,4.61,3.15,5,0Z"/><path class="cls-2" d="M166.23,87.66c-10.24,3.08-19.77,11.19-23,21.5-.58,1.85,2.31,2.64,2.89.8,2.9-9.27,11.69-16.64,20.9-19.41,1.84-.56,1.05-3.45-.8-2.89Z"/><path class="cls-3" d="M231.7,122H234c-.13-30.4-25.37-55-56.49-55S121.14,91.6,121,122h2.11"/><polyline class="cls-3" points="231.71 125 234 125 234 208 121 208 121 125 123.32 125"/><rect class="cls-4" x="105" y="208" width="145" height="12"/><rect class="cls-4" x="151" y="220" width="12" height="28"/><rect class="cls-4" x="195" y="220" width="11" height="86"/><polyline class="cls-4" points="151 155 151 208 163 208 163 162.98"/><path class="cls-4" d="M163,164c0-5-6.26-9-14-9"/><line class="cls-5" x1="151" y1="140" x2="206" y2="140"/><line class="cls-3" x1="206" y1="140" x2="206" y2="208"/><line class="cls-5" x1="151" y1="140" x2="194" y2="179"/><line class="cls-6" x1="194" y1="179" x2="194" y2="208"/><line class="cls-3" x1="195" y1="152" x2="164" y2="152"/><rect class="cls-7" x="124" y="121" width="4" height="7"/><rect class="cls-8" x="229" y="121" width="2" height="8"/></g></g></svg>